<svg xmlns="http://www.w3.org/2000/svg" viewBox="0 0 32 32"><defs><radialGradient id="g" cx="50%" cy="60%" r="60%"><stop offset="0" stop-color="#ffd08a"/><stop offset=".55" stop-color="#ffb24a"/><stop offset="1" stop-color="#c4701c"/></radialGradient></defs><path d="M10 2h12a7 7 0 0 1 7 7v16a5 5 0 0 1-5 5H8a5 5 0 0 1-5-5V9a7 7 0 0 1 7-7z" fill="url(#g)"/><path d="M11 6h10a4.5 4.5 0 0 1 4.5 4.5v14A2.5 2.5 0 0 1 23 27H9a2.5 2.5 0 0 1-2.5-2.5v-14A4.5 4.5 0 0 1 11 6z" fill="none" stroke="#fff" stroke-opacity=".7" stroke-width="2"/></svg>
